#N canvas 948 237 500 400 12;
#X obj 60 40 adc~ 1;
#X obj 60 220 dac~;
#X obj 250 120 print nn~-info;
#X msg 250 80 get_methods;
#X obj 60 120 nn~ C:/Users/Usuario/Documents/voice-to-guitar-brave/models/guitar_v2_final.ts forward;
#X obj 60 170 *~ 20;
#X connect 0 0 4 0;
#X connect 3 0 4 0;
#X connect 4 0 5 0;
#X connect 5 0 1 0;
#X connect 5 0 1 1;
#X connect 4 1 2 0;
