#N canvas 932 235 500 400 12;
#X obj 60 100 nn~ C:/Users/Usuario/Documents/voice-to-guitar-brave/models/guitar_v2_3415d67484.ts forward;
#X obj 60 200 dac~;
#X obj 200 40 osc~ 220;
#X obj 60 150 *~ 0.5;
#X obj 60 40 osc~ 880;
#X connect 0 0 1 0;
#X connect 0 0 1 1;
#X connect 3 0 0 0;
#X connect 4 0 3 0;
