#N canvas 948 237 500 400 12;
#X obj 60 40 adc~ 1;
#X obj 60 230 dac~;
#X obj 250 140 print nn~-info;
#X msg 250 100 get_methods;
#X obj 60 100 nn~ C:/Users/Usuario/Documents/voice-to-guitar-brave/models/guitar_v4.ts forward;
#X obj 60 175 *~ 30;
#X connect 0 0 4 0;
#X connect 3 0 4 0;
#X connect 4 0 5 0;
#X connect 4 1 2 0;
#X connect 5 0 1 0;
#X connect 5 0 1 1;
